<svg width="40" height="45" viewBox="0 0 40 45" fill="none" xmlns="http://www.w3.org/2000/svg">
<rect x="38.2607" y="20.508" width="1.7391" height="10.4347" fill="#353535"/>
<rect x="34.7803" y="32.6815" width="1.7391" height="6.95644" fill="#353535"/>
<rect x="33.042" y="17.0299" width="1.7391" height="1.73911" fill="#353535"/>
<rect x="31.3027" y="18.7688" width="1.7391" height="1.73911" fill="#353535"/>
<rect x="31.3027" y="20.508" width="1.7391" height="1.73911" fill="#353535"/>
<rect x="33.042" y="22.2469" width="1.7391" height="1.73911" fill="#353535"/>
<rect x="20.8691" y="20.508" width="1.7391" height="3.47822" fill="#353535"/>
<rect x="19.1299" y="17.0298" width="1.7391" height="3.47822" fill="#353535"/>
<rect x="3.47754" y="17.0298" width="1.7391" height="3.47822" fill="#353535"/>
<rect x="1.73926" y="20.5081" width="1.7391" height="3.47822" fill="#353535"/>
<rect x="33.042" y="29.2034" width="1.7391" height="3.47822" fill="#353535"/>
<rect x="34.7803" y="23.9864" width="1.7391" height="3.47822" fill="#353535"/>
<rect x="36.5195" y="27.4645" width="1.73911" height="5.21729" transform="rotate(90 36.5195 27.4645)" fill="#353535"/>
<rect x="29.5635" y="23.9863" width="1.73911" height="6.95639" transform="rotate(90 29.5635 23.9863)" fill="#353535"/>
<rect x="33.042" y="39.6383" width="1.7391" height="1.73911" fill="#353535"/>
<rect x="29.5635" y="25.7252" width="1.7391" height="1.73911" fill="#353535"/>
<rect x="17.3906" y="15.2907" width="1.7391" height="1.73911" fill="#353535"/>
<rect x="15.6514" y="17.0299" width="1.7391" height="1.73911" fill="#353535"/>
<rect x="6.95703" y="17.0299" width="1.7391" height="1.73911" fill="#353535"/>
<rect x="5.2168" y="25.7253" width="1.7391" height="1.73911" fill="#353535"/>
<rect x="10.4346" y="29.2034" width="1.7391" height="1.73911" fill="#353535"/>
<rect x="8.69531" y="29.2034" width="1.7391" height="1.73911" fill="#353535"/>
<rect x="12.1729" y="29.2034" width="1.7391" height="1.73911" fill="#353535"/>
<rect x="15.6514" y="25.7253" width="1.7391" height="1.73911" fill="#353535"/>
<rect x="5.2168" y="15.2907" width="1.7391" height="1.73911" fill="#353535"/>
<rect x="8.69531" y="18.7687" width="6.95639" height="1.73911" fill="#353535"/>
<rect x="31.3027" y="41.3772" width="1.7391" height="1.73911" fill="#353535"/>
<rect x="3.47754" y="41.3773" width="1.7391" height="1.73911" fill="#353535"/>
<rect x="10.4346" y="41.3772" width="1.7391" height="1.73911" fill="#353535"/>
<rect x="17.3906" y="41.3772" width="5.21729" height="1.73911" fill="#353535"/>
<rect x="26.0859" y="41.3773" width="1.7391" height="1.73911" fill="#353535"/>
<rect x="1.73926" y="39.6382" width="1.7391" height="1.73911" fill="#353535"/>
<rect y="23.9861" width="1.7391" height="10.4347" fill="#353535"/>
<rect x="1.73926" y="34.4207" width="1.7391" height="5.21733" fill="#353535"/>
<rect x="36.5195" y="30.9426" width="1.7391" height="1.73911" fill="#353535"/>
<rect x="31.3027" y="43.1164" width="1.73911" height="26.0864" transform="rotate(90 31.3027 43.1164)" fill="#353535"/>
<rect x="34.7803" y="18.7688" width="3.4782" height="1.73911" fill="#353535"/>
<rect x="12.1738" y="20.508" width="1.7391" height="1.73911" fill="white"/>
<rect x="15.6514" y="20.5081" width="1.7391" height="1.73911" fill="white"/>
<rect x="6.95605" y="29.2034" width="1.7391" height="1.73911" fill="white"/>
<rect x="29.5635" y="27.4642" width="1.7391" height="1.73911" fill="white"/>
<rect x="36.5205" y="25.7253" width="1.7391" height="1.73911" fill="white"/>
<rect x="27.8252" y="41.3773" width="1.7391" height="1.73911" fill="white"/>
<rect x="22.6084" y="41.3772" width="3.47819" height="1.73911" fill="white"/>
<rect x="13.9131" y="41.3772" width="3.47819" height="1.73911" fill="white"/>
<rect x="6.95605" y="41.3773" width="3.47819" height="1.73911" fill="white"/>
<rect x="36.5205" y="29.2036" width="1.7391" height="1.73911" fill="white"/>
<rect x="17.3906" y="25.7253" width="1.7391" height="1.73911" fill="white"/>
<rect x="6.95605" y="20.5081" width="1.7391" height="1.73911" fill="white"/>
<rect x="1.73926" y="25.7252" width="1.7391" height="6.95644" fill="white"/>
<rect x="31.3027" y="30.9427" width="1.7391" height="8.69555" fill="white"/>
<rect x="5.2168" y="18.7688" width="1.7391" height="6.95644" fill="white"/>
<rect x="3.47852" y="29.2034" width="1.7391" height="5.21733" fill="white"/>
<rect x="3.47852" y="22.2469" width="1.7391" height="5.21733" fill="white"/>
<rect x="20.8691" y="25.7252" width="1.7391" height="3.47822" fill="white"/>
<rect x="24.3467" y="25.7253" width="1.7391" height="3.47822" fill="white"/>
<rect x="27.8252" y="25.7253" width="1.7391" height="3.47822" fill="white"/>
<rect x="34.7812" y="29.2035" width="1.7391" height="3.47822" fill="white"/>
<rect x="33.042" y="32.6815" width="1.7391" height="5.21733" fill="white"/>
<rect x="5.2168" y="27.4642" width="1.7391" height="3.47822" fill="white"/>
<rect x="17.3906" y="18.7688" width="1.7391" height="3.47822" fill="white"/>
<rect x="19.1299" y="25.7253" width="1.7391" height="3.47822" fill="white"/>
<rect x="15.6514" y="22.2469" width="5.21729" height="3.47822" fill="white"/>
<rect x="33.042" y="18.7688" width="1.7391" height="3.47822" fill="white"/>
<rect x="5.2168" y="30.9427" width="26.0864" height="10.4347" fill="white"/>
<rect x="6.95605" y="22.2469" width="8.69548" height="6.95644" fill="white"/>
<rect x="13.9131" y="29.2034" width="19.1301" height="1.73911" fill="white"/>
<rect x="34.7812" y="20.5081" width="3.47819" height="3.47822" fill="white"/>
<rect x="15.6514" y="27.4645" width="1.7391" height="1.73911" fill="white"/>
<rect x="14.4346" y="31.8124" width="1.7391" height="1.73911" fill="white"/>
<rect x="3.47852" y="39.6381" width="1.7391" height="1.73911" fill="#B3B3B3"/>
<rect x="5.2168" y="41.3772" width="1.7391" height="1.73911" fill="#B3B3B3"/>
<rect x="1.73926" y="32.6818" width="1.7391" height="1.73911" fill="#B3B3B3"/>
<rect x="12.1738" y="41.3772" width="1.7391" height="1.73911" fill="#B3B3B3"/>
<rect x="29.5635" y="41.3772" width="1.7391" height="1.73911" fill="#B3B3B3"/>
<rect x="31.3027" y="39.6381" width="1.7391" height="1.73911" fill="#B3B3B3"/>
<rect x="33.042" y="37.899" width="1.7391" height="1.73911" fill="#B3B3B3"/>
<rect x="36.5205" y="27.4644" width="1.7391" height="1.73911" fill="#B3B3B3"/>
<rect x="36.5205" y="23.9861" width="1.7391" height="1.73911" fill="#B3B3B3"/>
<rect x="20.8691" y="23.9861" width="1.7391" height="1.73911" fill="#B3B3B3"/>
<rect x="17.3906" y="27.4643" width="1.7391" height="1.73911" fill="#B3B3B3"/>
<rect x="3.47852" y="27.4642" width="1.7391" height="1.73911" fill="#B3B3B3"/>
<rect x="19.1299" y="20.5081" width="1.7391" height="1.73911" fill="#B3B3B3"/>
<rect x="15.6514" y="18.7689" width="1.7391" height="1.73911" fill="#B3B3B3"/>
<rect x="13.9121" y="20.508" width="1.7391" height="1.73911" fill="#B3B3B3"/>
<rect x="6.95605" y="18.7688" width="1.7391" height="1.73911" fill="#B3B3B3"/>
<rect x="5.2168" y="17.0296" width="1.7391" height="1.73911" fill="#B3B3B3"/>
<rect x="17.3906" y="17.0297" width="1.7391" height="1.73911" fill="#B3B3B3"/>
<rect x="3.47852" y="20.5081" width="1.7391" height="1.73911" fill="#B3B3B3"/>
<rect x="1.73926" y="23.9861" width="1.7391" height="1.73911" fill="#B3B3B3"/>
<rect x="26.0859" y="25.7253" width="1.7391" height="3.47822" fill="#B3B3B3"/>
<rect x="22.6084" y="25.7252" width="1.7391" height="3.47822" fill="#B3B3B3"/>
<rect x="8.69531" y="20.5081" width="3.4782" height="1.73911" fill="#B3B3B3"/>
<rect x="3.47852" y="34.4208" width="1.7391" height="5.21733" fill="#B3B3B3"/>
<rect x="12.0684" y="8.87885" width="1.50861" height="1.50863" fill="#B3B3B3"/>
<rect x="11.3135" y="8.87891" width="1.50861" height="1.50863" fill="#E54459"/>
<rect x="12.0684" y="0.95874" width="1.50861" height="7.16597" fill="#B3B3B3"/>
<rect x="11.3135" y="0.95874" width="1.50861" height="7.16597" fill="#E54459"/>
</svg>
