<svg width="20" height="20" viewBox="0 0 20 20" fill="none" xmlns="http://www.w3.org/2000/svg">
<mask id="mask0_11658_6974" style="mask-type:alpha" maskUnits="userSpaceOnUse" x="0" y="0" width="20" height="20">
<rect width="20" height="20" fill="#D9D9D9"/>
</mask>
<g mask="url(#mask0_11658_6974)">
<path d="M10 12.8429C9.89958 12.8429 9.80611 12.8269 9.71958 12.7948C9.63306 12.7628 9.55076 12.7078 9.47271 12.6298L6.88146 10.0385C6.75757 9.91451 6.69639 9.76944 6.69792 9.60333C6.69958 9.43722 6.76076 9.28951 6.88146 9.16021C7.01076 9.03104 7.15924 8.96431 7.32687 8.96C7.49465 8.95569 7.64319 9.01819 7.7725 9.1475L9.375 10.75V4.375C9.375 4.19764 9.43486 4.04917 9.55458 3.92958C9.67417 3.80986 9.82264 3.75 10 3.75C10.1774 3.75 10.3258 3.80986 10.4454 3.92958C10.5651 4.04917 10.625 4.19764 10.625 4.375V10.75L12.2275 9.1475C12.3515 9.02361 12.4987 8.96243 12.669 8.96396C12.8394 8.96563 12.9892 9.03104 13.1185 9.16021C13.2392 9.28951 13.3017 9.4359 13.306 9.59937C13.3103 9.76285 13.2478 9.90924 13.1185 10.0385L10.5273 12.6298C10.4492 12.7078 10.3669 12.7628 10.2804 12.7948C10.1939 12.8269 10.1004 12.8429 10 12.8429ZM5.25646 16.25C4.83549 16.25 4.47917 16.1042 4.1875 15.8125C3.89583 15.5208 3.75 15.1645 3.75 14.7435V13.109C3.75 12.9316 3.80986 12.7831 3.92958 12.6635C4.04917 12.5438 4.19764 12.484 4.375 12.484C4.55236 12.484 4.70083 12.5438 4.82042 12.6635C4.94014 12.7831 5 12.9316 5 13.109V14.7435C5 14.8077 5.02674 14.8665 5.08021 14.9198C5.13354 14.9733 5.19229 15 5.25646 15H14.7435C14.8077 15 14.8665 14.9733 14.9198 14.9198C14.9733 14.8665 15 14.8077 15 14.7435V13.109C15 12.9316 15.0599 12.7831 15.1796 12.6635C15.2992 12.5438 15.4476 12.484 15.625 12.484C15.8024 12.484 15.9508 12.5438 16.0704 12.6635C16.1901 12.7831 16.25 12.9316 16.25 13.109V14.7435C16.25 15.1645 16.1042 15.5208 15.8125 15.8125C15.5208 16.1042 15.1645 16.25 14.7435 16.25H5.25646Z" fill="#777777"/>
</g>
</svg>
