<svg width="32" height="32" viewBox="0 0 32 32" fill="none" xmlns="http://www.w3.org/2000/svg">
<path fill-rule="evenodd" clip-rule="evenodd" d="M16 2.46154C8.52291 2.46154 2.46154 8.52291 2.46154 16C2.46154 23.4771 8.52291 29.5385 16 29.5385C23.4771 29.5385 29.5385 23.4771 29.5385 16C29.5385 8.52291 23.4771 2.46154 16 2.46154ZM0 16C0 7.16344 7.16344 0 16 0C24.8366 0 32 7.16344 32 16C32 24.8366 24.8366 32 16 32C7.16344 32 0 24.8366 0 16Z" fill="currentColor"/>
<path d="M14.6908 19.549C14.6908 18.5768 14.8088 17.8025 15.0449 17.2261C15.281 16.6497 15.7116 16.0837 16.3366 15.5282C16.9685 14.9657 17.3887 14.5108 17.597 14.1636C17.8053 13.8094 17.9095 13.4379 17.9095 13.049C17.9095 11.8754 17.3678 11.2886 16.2845 11.2886C15.7706 11.2886 15.3574 11.4483 15.0449 11.7678C14.7394 12.0803 14.5796 12.5143 14.5658 13.0698H11.5449C11.5588 11.7435 11.9859 10.7053 12.8262 9.95526C13.6734 9.20526 14.8262 8.83026 16.2845 8.83026C17.7567 8.83026 18.8991 9.1879 19.7116 9.90318C20.5241 10.6115 20.9303 11.615 20.9303 12.9136C20.9303 13.5039 20.7984 14.0629 20.5345 14.5907C20.2706 15.1115 19.8088 15.6914 19.1491 16.3303L18.3053 17.1323C17.7776 17.6393 17.4755 18.233 17.3991 18.9136L17.3574 19.549H14.6908ZM14.3887 22.7469C14.3887 22.2817 14.5449 21.8997 14.8574 21.6011C15.1769 21.2955 15.5831 21.1428 16.0762 21.1428C16.5692 21.1428 16.972 21.2955 17.2845 21.6011C17.6039 21.8997 17.7637 22.2817 17.7637 22.7469C17.7637 23.2053 17.6074 23.5837 17.2949 23.8823C16.9894 24.181 16.5831 24.3303 16.0762 24.3303C15.5692 24.3303 15.1595 24.181 14.847 23.8823C14.5414 23.5837 14.3887 23.2053 14.3887 22.7469Z" fill="currentColor"/>
</svg>
