<svg width="124" height="137" viewBox="0 0 124 137" fill="none" xmlns="http://www.w3.org/2000/svg">
<rect x="118.608" y="60.6034" width="5.3913" height="32.3478" fill="#353535"/>
<rect x="107.825" y="98.3417" width="5.39131" height="21.5652" fill="#353535"/>
<rect x="102.436" y="49.8212" width="5.3913" height="5.3913" fill="#353535"/>
<rect x="97.0439" y="55.2118" width="5.3913" height="5.3913" fill="#353535"/>
<rect x="97.0439" y="60.6034" width="5.3913" height="5.3913" fill="#353535"/>
<rect x="102.436" y="65.994" width="5.3913" height="5.3913" fill="#353535"/>
<rect x="64.6953" y="60.6035" width="5.39131" height="10.7826" fill="#353535"/>
<rect x="59.3047" y="49.821" width="5.39131" height="10.7826" fill="#353535"/>
<rect x="10.7832" y="49.821" width="5.39131" height="10.7826" fill="#353535"/>
<rect x="5.3916" y="60.6035" width="5.39131" height="10.7826" fill="#353535"/>
<rect x="102.436" y="87.5594" width="5.39131" height="10.7826" fill="#353535"/>
<rect x="107.825" y="71.3866" width="5.39131" height="10.7826" fill="#353535"/>
<rect x="113.217" y="82.1688" width="5.39131" height="16.1739" transform="rotate(90 113.217 82.1688)" fill="#353535"/>
<rect x="91.6523" y="71.3866" width="5.39131" height="21.5652" transform="rotate(90 91.6523 71.3866)" fill="#353535"/>
<rect x="102.436" y="119.908" width="5.39131" height="5.39131" fill="#353535"/>
<rect x="91.6523" y="76.7772" width="5.39131" height="5.39131" fill="#353535"/>
<rect x="53.9131" y="44.4296" width="5.39131" height="5.39131" fill="#353535"/>
<rect x="48.5215" y="49.8212" width="5.39131" height="5.39131" fill="#353535"/>
<rect x="21.5654" y="49.8212" width="5.39131" height="5.39131" fill="#353535"/>
<rect x="16.1738" y="76.7772" width="5.39131" height="5.39131" fill="#353535"/>
<rect x="32.3486" y="87.5594" width="5.39131" height="5.39131" fill="#353535"/>
<rect x="26.957" y="87.5594" width="5.39131" height="5.39131" fill="#353535"/>
<rect x="37.7383" y="87.5594" width="5.39131" height="5.39131" fill="#353535"/>
<rect x="48.5215" y="76.7772" width="5.39131" height="5.39131" fill="#353535"/>
<rect x="16.1738" y="44.4296" width="5.39131" height="5.39131" fill="#353535"/>
<rect x="26.957" y="55.2118" width="21.5652" height="5.39131" fill="#353535"/>
<rect x="97.0439" y="125.299" width="5.39131" height="5.39131" fill="#353535"/>
<rect x="10.7832" y="125.299" width="5.39131" height="5.39131" fill="#353535"/>
<rect x="32.3486" y="125.299" width="5.3913" height="5.3913" fill="#353535"/>
<rect x="53.9131" y="125.299" width="16.1739" height="5.3913" fill="#353535"/>
<rect x="80.8701" y="125.299" width="5.3913" height="5.3913" fill="#353535"/>
<rect x="5.3916" y="119.908" width="5.39131" height="5.39131" fill="#353535"/>
<rect y="71.3856" width="5.3913" height="32.3478" fill="#353535"/>
<rect x="5.3916" y="103.733" width="5.3913" height="16.1739" fill="#353535"/>
<rect x="113.217" y="92.951" width="5.3913" height="5.3913" fill="#353535"/>
<rect x="97.0439" y="130.69" width="5.39131" height="80.8696" transform="rotate(90 97.0439 130.69)" fill="#353535"/>
<rect x="107.825" y="55.2118" width="10.7826" height="5.39131" fill="#353535"/>
<rect x="37.7383" y="60.6036" width="5.39131" height="5.39131" fill="white"/>
<rect x="48.5205" y="60.6036" width="5.39131" height="5.39131" fill="white"/>
<rect x="21.5645" y="87.5596" width="5.39131" height="5.39131" fill="white"/>
<rect x="91.6504" y="82.168" width="5.39131" height="5.39131" fill="white"/>
<rect x="113.216" y="76.7772" width="5.39131" height="5.39131" fill="white"/>
<rect x="86.2607" y="125.299" width="5.39131" height="5.39131" fill="white"/>
<rect x="70.0859" y="125.299" width="10.7826" height="5.3913" fill="white"/>
<rect x="43.1289" y="125.299" width="10.7826" height="5.3913" fill="white"/>
<rect x="21.5645" y="125.299" width="10.7826" height="5.3913" fill="white"/>
<rect x="113.216" y="87.5597" width="5.39131" height="5.39131" fill="white"/>
<rect x="53.9121" y="76.7772" width="5.39131" height="5.39131" fill="white"/>
<rect x="21.5645" y="60.6036" width="5.39131" height="5.39131" fill="white"/>
<rect x="5.39062" y="76.7772" width="5.3913" height="21.5652" fill="white"/>
<rect x="97.042" y="92.9512" width="5.3913" height="26.9565" fill="white"/>
<rect x="16.1738" y="55.212" width="5.3913" height="21.5652" fill="white"/>
<rect x="10.7822" y="87.5596" width="5.3913" height="16.1739" fill="white"/>
<rect x="10.7822" y="65.9942" width="5.3913" height="16.1739" fill="white"/>
<rect x="64.6953" y="76.7772" width="5.3913" height="10.7826" fill="white"/>
<rect x="75.4775" y="76.7772" width="5.3913" height="10.7826" fill="white"/>
<rect x="86.2607" y="76.7774" width="5.3913" height="10.7826" fill="white"/>
<rect x="107.825" y="87.5596" width="5.3913" height="10.7826" fill="white"/>
<rect x="102.434" y="98.3419" width="5.3913" height="16.1739" fill="white"/>
<rect x="16.1738" y="82.168" width="5.3913" height="10.7826" fill="white"/>
<rect x="53.9121" y="55.212" width="5.3913" height="10.7826" fill="white"/>
<rect x="59.3037" y="76.7772" width="5.3913" height="10.7826" fill="white"/>
<rect x="48.5205" y="65.9942" width="16.1739" height="10.7826" fill="white"/>
<rect x="102.434" y="55.212" width="5.3913" height="10.7826" fill="white"/>
<rect x="16.1738" y="92.9512" width="80.8696" height="32.3478" fill="white"/>
<rect x="21.5645" y="65.9942" width="26.9565" height="21.5652" fill="white"/>
<rect x="43.1289" y="87.5597" width="59.3043" height="5.3913" fill="white"/>
<rect x="107.825" y="60.6036" width="10.7826" height="10.7826" fill="white"/>
<rect x="48.5205" y="82.169" width="5.39131" height="5.39131" fill="white"/>
<rect x="44.7471" y="95.6475" width="5.39131" height="5.39131" fill="white"/>
<rect x="10.7822" y="119.907" width="5.39131" height="5.39131" fill="#B3B3B3"/>
<rect x="16.1738" y="125.299" width="5.39131" height="5.39131" fill="#B3B3B3"/>
<rect x="5.39062" y="98.3428" width="5.39131" height="5.39131" fill="#B3B3B3"/>
<rect x="37.7383" y="125.299" width="5.39131" height="5.39131" fill="#B3B3B3"/>
<rect x="91.6504" y="125.299" width="5.39131" height="5.39131" fill="#B3B3B3"/>
<rect x="97.042" y="119.907" width="5.39131" height="5.39131" fill="#B3B3B3"/>
<rect x="102.434" y="114.517" width="5.39131" height="5.39131" fill="#B3B3B3"/>
<rect x="113.216" y="82.1682" width="5.39131" height="5.39131" fill="#B3B3B3"/>
<rect x="113.216" y="71.3857" width="5.39131" height="5.39131" fill="#B3B3B3"/>
<rect x="64.6953" y="71.3857" width="5.39131" height="5.39131" fill="#B3B3B3"/>
<rect x="53.9121" y="82.1682" width="5.39131" height="5.39131" fill="#B3B3B3"/>
<rect x="10.7822" y="82.168" width="5.39131" height="5.39131" fill="#B3B3B3"/>
<rect x="59.3037" y="60.6036" width="5.39131" height="5.39131" fill="#B3B3B3"/>
<rect x="48.5205" y="55.2122" width="5.39131" height="5.39131" fill="#B3B3B3"/>
<rect x="43.1289" y="60.6036" width="5.39131" height="5.39131" fill="#B3B3B3"/>
<rect x="21.5645" y="55.212" width="5.39131" height="5.39131" fill="#B3B3B3"/>
<rect x="16.1738" y="49.8204" width="5.39131" height="5.39131" fill="#B3B3B3"/>
<rect x="53.9121" y="49.8206" width="5.39131" height="5.39131" fill="#B3B3B3"/>
<rect x="10.7822" y="60.6036" width="5.39131" height="5.39131" fill="#B3B3B3"/>
<rect x="5.39062" y="71.3857" width="5.39131" height="5.39131" fill="#B3B3B3"/>
<rect x="80.8691" y="76.7774" width="5.39131" height="10.7826" fill="#B3B3B3"/>
<rect x="70.0859" y="76.7772" width="5.39131" height="10.7826" fill="#B3B3B3"/>
<rect x="26.9551" y="60.6036" width="10.7826" height="5.39131" fill="#B3B3B3"/>
<rect x="10.7822" y="103.733" width="5.39131" height="16.1739" fill="#B3B3B3"/>
<rect x="37.4141" y="24.5527" width="4.6768" height="4.6768" fill="#B3B3B3"/>
<rect x="35.0762" y="24.5527" width="4.6768" height="4.6768" fill="#E54459"/>
<rect x="37.4141" width="4.6768" height="22.2148" fill="#B3B3B3"/>
<rect x="35.0762" width="4.6768" height="22.2148" fill="#E54459"/>
</svg>
