<svg width="60" height="60" viewBox="0 0 60 60" fill="none" xmlns="http://www.w3.org/2000/svg">
<mask id="mask0_7800_28829" style="mask-type:alpha" maskUnits="userSpaceOnUse" x="0" y="0" width="60" height="60">
<rect width="60" height="60" fill="#D9D9D9"/>
</mask>
<g mask="url(#mask0_7800_28829)">
<path d="M15.521 43.7847L14.7217 46.2643L17.1815 45.7684L15.521 43.7847Z" fill="currentColor"/>
<path d="M16.9353 39.0089L22.407 44.2808L23.6032 43.0767L18.1314 37.867L16.9353 39.0089Z" fill="currentColor"/>
<path d="M38.7638 14.6493L39.3786 16.3825L40.9769 14.7712L39.9935 13.4095L38.7638 14.6493Z" fill="currentColor"/>
<path d="M47.6181 21.0962L46.3259 20.1669L44.7276 21.7781L46.4496 22.3978L47.6181 21.0962Z" fill="currentColor"/>
<path fill-rule="evenodd" clip-rule="evenodd" d="M17.1815 45.7684L14.7217 46.2643L15.521 43.7847L16.9353 39.0089L18.1314 37.867L38.26 17.5092L43.609 22.9048L23.6032 43.0767L22.407 44.2808L17.1815 45.7684ZM46.3259 20.1669L47.6181 21.0962L50.4466 18.2447C50.8155 17.8728 51 17.4388 51 16.9429C51 16.447 50.2004 15.3929 49.8315 15.021L46.6343 11.7977C46.2654 11.4258 44.6052 10 44.1133 10C43.6214 10 43.1909 10.186 42.822 10.5579L39.9935 13.4095L40.9769 14.7712L46.3259 20.1669ZM23.2069 45.8301L46.4496 22.3978L44.7276 21.7781L39.3786 16.3825L38.7638 14.6493L15.521 38.0816L13 48L23.2069 45.8301ZM47.6174 18.8026L42.3301 13.4692L44.1133 11.5475L49.462 16.9429L47.6174 18.8026Z" fill="currentColor"/>
</g>
</svg>
