<svg width="118" height="27" viewBox="0 0 118 27" fill="none" xmlns="http://www.w3.org/2000/svg">
<path d="M10.707 26.457C8.59766 26.457 6.76367 26.1582 5.20508 25.5605C3.6582 24.9512 2.44531 24.0781 1.56641 22.9414C0.699219 21.8047 0.212891 20.4277 0.107422 18.8105L0.0898438 18.4941H6.08398L6.11914 18.6699C6.23633 19.2207 6.50586 19.7012 6.92773 20.1113C7.36133 20.5098 7.91211 20.8262 8.58008 21.0605C9.24805 21.2832 9.99219 21.3945 10.8125 21.3945C11.668 21.3945 12.4004 21.2832 13.0098 21.0605C13.6309 20.8262 14.1113 20.5098 14.4512 20.1113C14.791 19.7129 14.9609 19.25 14.9609 18.7227V18.7051C14.9609 17.9902 14.6504 17.4395 14.0293 17.0527C13.4082 16.6543 12.3535 16.3145 10.8652 16.0332L8.26367 15.5234C5.75586 15.0547 3.8457 14.2109 2.5332 12.9922C1.23242 11.7617 0.582031 10.1738 0.582031 8.22852V8.21094C0.582031 6.58203 1.01562 5.16992 1.88281 3.97461C2.75 2.76758 3.93945 1.83594 5.45117 1.17969C6.97461 0.511719 8.70312 0.177734 10.6367 0.177734C12.7578 0.177734 14.5625 0.494141 16.0508 1.12695C17.5391 1.74805 18.6875 2.62695 19.4961 3.76367C20.3164 4.90039 20.7617 6.23633 20.832 7.77148L20.8496 8.14062H14.8555L14.8379 7.94727C14.7676 7.38477 14.5508 6.9043 14.1875 6.50586C13.8242 6.10742 13.3438 5.79688 12.7461 5.57422C12.1484 5.35156 11.4629 5.24023 10.6895 5.24023C9.9043 5.24023 9.23633 5.35156 8.68555 5.57422C8.13477 5.79688 7.71289 6.10156 7.41992 6.48828C7.13867 6.86328 6.99805 7.29102 6.99805 7.77148V7.78906C6.99805 8.46875 7.30859 9.00781 7.92969 9.40625C8.55078 9.80469 9.54102 10.1328 10.9004 10.3906L13.502 10.8828C15.3066 11.2227 16.7891 11.7031 17.9492 12.3242C19.1094 12.9453 19.9707 13.7363 20.5332 14.6973C21.0957 15.6465 21.377 16.8008 21.377 18.1602V18.1777C21.377 19.8652 20.9551 21.3301 20.1113 22.5723C19.2676 23.8145 18.0488 24.7754 16.4551 25.4551C14.8613 26.123 12.9453 26.457 10.707 26.457ZM24.3652 26V0.634766H29.8496L42.1191 18.3359L37.4258 15.2598H40.0977V0.634766H46.5312V26H41.1172L28.8125 8.14062L33.4707 11.2168H30.8164V26H24.3652ZM61.2969 26.457C59.1055 26.457 57.1895 26.0645 55.5488 25.2793C53.9082 24.4941 52.6367 23.3926 51.7344 21.9746C50.832 20.5566 50.3809 18.8984 50.3809 17V0.634766H56.832V16.3848C56.832 17.3691 57.0078 18.2129 57.3594 18.916C57.7109 19.6191 58.2148 20.1641 58.8711 20.5508C59.5391 20.9258 60.3535 21.1133 61.3145 21.1133C62.2754 21.1133 63.0898 20.9258 63.7578 20.5508C64.4258 20.1641 64.9297 19.6191 65.2695 18.916C65.6094 18.2129 65.7793 17.3691 65.7793 16.3848V0.634766H72.2305V17C72.2305 18.8867 71.7793 20.5449 70.877 21.9746C69.9863 23.3926 68.7207 24.4941 67.0801 25.2793C65.4512 26.0645 63.5234 26.457 61.2969 26.457ZM81.9688 26V5.82031H74.9727V0.634766H95.3984V5.82031H88.4199V26H81.9688ZM104.012 26V5.82031H97.0156V0.634766H117.441V5.82031H110.463V26H104.012Z" fill="currentColor"/>
</svg>
