<svg width="60" height="60" viewBox="0 0 60 60" fill="none" xmlns="http://www.w3.org/2000/svg">
<rect x="17.8824" y="46.9413" width="25.2353" height="1.94118" rx="0.970588" fill="currentColor"/>
<path fill-rule="evenodd" clip-rule="evenodd" d="M16.5198 21.7904C17.0538 21.7437 17.5246 22.1387 17.5713 22.6727L19.7707 47.812C19.8174 48.346 19.4224 48.8167 18.8884 48.8635C18.3544 48.9102 17.8836 48.5152 17.8369 47.9812L15.6375 22.8419C15.5908 22.3079 15.9858 21.8371 16.5198 21.7904Z" fill="currentColor"/>
<path fill-rule="evenodd" clip-rule="evenodd" d="M44.512 21.7904C45.046 21.8371 45.441 22.3079 45.3943 22.8419L43.1949 47.9812C43.1482 48.5152 42.6774 48.9102 42.1434 48.8635C41.6094 48.8168 41.2144 48.346 41.2611 47.812L43.4605 22.6727C43.5072 22.1387 43.978 21.7437 44.512 21.7904Z" fill="currentColor"/>
<rect x="14.4853" y="16.3676" width="32.0294" height="0.970588" rx="0.485294" stroke="currentColor" stroke-width="0.970588"/>
<rect x="26.1323" y="25.103" width="0.970588" height="14.5588" rx="0.485294" stroke="currentColor" stroke-width="0.970588"/>
<path d="M25.4264 14C25.4264 13.3096 25.986 12.75 26.6764 12.75H34.3235C35.0138 12.75 35.5735 13.3096 35.5735 14V17.0735H25.4264V14Z" stroke="currentColor" stroke-width="1.5"/>
<rect x="33.8969" y="25.103" width="0.970588" height="14.5588" rx="0.485294" stroke="currentColor" stroke-width="0.970588"/>
</svg>
