<svg width="31" height="31" viewBox="0 0 31 31" fill="none">
<path d="M25.8334 27.125V24.5417C25.8334 23.1714 25.2891 21.8572 24.3201 20.8883C23.3512 19.9193 22.037 19.375 20.6667 19.375H10.3334C8.96313 19.375 7.64897 19.9193 6.68003 20.8883C5.71109 21.8572 5.16675 23.1714 5.16675 24.5417V27.125" fill="currentColor"/>
<path d="M25.8334 27.125V24.5417C25.8334 23.1714 25.2891 21.8572 24.3201 20.8883C23.3512 19.9193 22.037 19.375 20.6667 19.375H10.3334C8.96313 19.375 7.64897 19.9193 6.68003 20.8883C5.71109 21.8572 5.16675 23.1714 5.16675 24.5417V27.125" stroke="currentColor" stroke-width="3" stroke-linejoin="round"/>
<path d="M15.4999 14.2083C18.3534 14.2083 20.6666 11.8951 20.6666 9.04167C20.6666 6.1882 18.3534 3.875 15.4999 3.875C12.6464 3.875 10.3333 6.1882 10.3333 9.04167C10.3333 11.8951 12.6464 14.2083 15.4999 14.2083Z" fill="currentColor" stroke="currentColor" stroke-width="2" stroke-linecap="round" stroke-linejoin="round"/>
</svg>
