<svg width="26" height="26" viewBox="0 0 26 26" fill="none" xmlns="http://www.w3.org/2000/svg">
<mask id="path-1-inside-1_1645_6763" fill="white">
<path fill-rule="evenodd" clip-rule="evenodd" d="M17.6555 11.0611C17.6555 14.4637 14.897 17.2221 11.4944 17.2221C8.09172 17.2221 5.33331 14.4637 5.33331 11.0611C5.33331 7.6584 8.09172 4.89999 11.4944 4.89999C14.897 4.89999 17.6555 7.6584 17.6555 11.0611ZM16.2317 16.4313C14.9693 17.5459 13.3108 18.2221 11.4944 18.2221C7.53943 18.2221 4.33331 15.016 4.33331 11.0611C4.33331 7.10611 7.53943 3.89999 11.4944 3.89999C15.4493 3.89999 18.6555 7.10611 18.6555 11.0611C18.6555 12.8775 17.9792 14.5359 16.8647 15.7984L17.3101 16.2438L20.9595 19.8933L21.6666 20.6004L21.0337 21.2333L20.3266 20.5262L16.6772 16.8768L16.2317 16.4313Z"/>
</mask>
<path d="M16.2317 16.4313L16.9388 15.7242L16.2743 15.0598L15.5699 15.6817L16.2317 16.4313ZM16.8647 15.7984L16.115 15.1366L15.4931 15.841L16.1576 16.5055L16.8647 15.7984ZM17.3101 16.2438L18.0172 15.5367L18.0172 15.5367L17.3101 16.2438ZM20.9595 19.8933L21.6667 19.1862L20.9595 19.8933ZM21.6666 20.6004L22.3738 21.3075L23.0809 20.6004L22.3738 19.8933L21.6666 20.6004ZM21.0337 21.2333L20.3266 21.9404L21.0337 22.6475L21.7408 21.9404L21.0337 21.2333ZM11.4944 18.2221C15.4493 18.2221 18.6555 15.016 18.6555 11.0611H16.6555C16.6555 13.9114 14.3448 16.2221 11.4944 16.2221V18.2221ZM4.33331 11.0611C4.33331 15.016 7.53943 18.2221 11.4944 18.2221V16.2221C8.644 16.2221 6.33331 13.9114 6.33331 11.0611H4.33331ZM11.4944 3.89999C7.53943 3.89999 4.33331 7.10611 4.33331 11.0611H6.33331C6.33331 8.21068 8.644 5.89999 11.4944 5.89999V3.89999ZM18.6555 11.0611C18.6555 7.10611 15.4493 3.89999 11.4944 3.89999V5.89999C14.3448 5.89999 16.6555 8.21068 16.6555 11.0611H18.6555ZM11.4944 19.2221C13.5638 19.2221 15.4554 18.4506 16.8935 17.181L15.5699 15.6817C14.4831 16.6411 13.0578 17.2221 11.4944 17.2221V19.2221ZM3.33331 11.0611C3.33331 15.5683 6.98715 19.2221 11.4944 19.2221V17.2221C8.09172 17.2221 5.33331 14.4637 5.33331 11.0611H3.33331ZM11.4944 2.89999C6.98715 2.89999 3.33331 6.55383 3.33331 11.0611H5.33331C5.33331 7.6584 8.09172 4.89999 11.4944 4.89999V2.89999ZM19.6555 11.0611C19.6555 6.55383 16.0016 2.89999 11.4944 2.89999V4.89999C14.897 4.89999 17.6555 7.6584 17.6555 11.0611H19.6555ZM17.6143 16.4602C18.8839 15.0221 19.6555 13.1304 19.6555 11.0611H17.6555C17.6555 12.6245 17.0744 14.0498 16.115 15.1366L17.6143 16.4602ZM16.1576 16.5055L16.603 16.951L18.0172 15.5367L17.5718 15.0913L16.1576 16.5055ZM16.603 16.951L20.2524 20.6004L21.6667 19.1862L18.0172 15.5367L16.603 16.951ZM20.2524 20.6004L20.9595 21.3075L22.3738 19.8933L21.6667 19.1862L20.2524 20.6004ZM20.9595 19.8933L20.3266 20.5262L21.7408 21.9404L22.3738 21.3075L20.9595 19.8933ZM21.7408 20.5262L21.0337 19.8191L19.6195 21.2333L20.3266 21.9404L21.7408 20.5262ZM21.0337 19.8191L17.3843 16.1697L15.9701 17.5839L19.6195 21.2333L21.0337 19.8191ZM17.3843 16.1697L16.9388 15.7242L15.5246 17.1385L15.9701 17.5839L17.3843 16.1697Z" fill="white" mask="url(#path-1-inside-1_1645_6763)"/>
</svg>
