<svg width="60" height="60" viewBox="0 0 60 60" fill="none" xmlns="http://www.w3.org/2000/svg">
<path d="M29.965 9C17.834 9 8 16.8545 8 26.5434C8 32.8074 12.1113 38.3038 18.2957 41.4075C17.9592 42.5829 16.1336 48.9691 16.0609 49.4708C16.0609 49.4708 16.0172 49.8478 16.2582 49.9916C16.4992 50.1353 16.7826 50.0237 16.7826 50.0237C17.4737 49.9259 24.7963 44.7155 26.0637 43.8107C27.3298 43.9924 28.6336 44.0867 29.965 44.0867C42.096 44.0867 51.93 36.2324 51.93 26.5434C51.93 16.8545 42.096 9 29.965 9Z" stroke="currentColor" stroke-width="1.75" stroke-linejoin="round"/>
<path d="M18.9751 32C18.3561 32 17.8527 31.5162 17.8527 30.9214V24.2118H16.1014C15.494 24.2118 15 23.7156 15 23.1059C15 22.4962 15.4942 22 16.1014 22H21.8487C22.4561 22 22.9501 22.4962 22.9501 23.1059C22.9501 23.7156 22.4559 24.2118 21.8487 24.2118H20.0974V30.9214C20.0974 31.5162 19.594 32 18.9751 32ZM28.8167 31.9853C28.3487 31.9853 27.9907 31.7941 27.8827 31.4865L27.327 30.0224L23.9045 30.0222L23.3484 31.4872C23.2408 31.7943 22.883 31.9853 22.4149 31.9853C22.1687 31.9856 21.9254 31.9324 21.7015 31.8295C21.3921 31.6858 21.0946 31.2909 21.4355 30.2257L24.1202 23.1149C24.3093 22.5741 24.8838 22.0169 25.6148 22.0002C26.3479 22.0168 26.9224 22.5741 27.1119 23.116L29.7954 30.2236C30.137 31.2913 29.8396 31.6864 29.5302 31.8296C29.3062 31.9324 29.0629 31.9855 28.8167 31.9853ZM26.7368 28.0218L25.6157 24.8171L24.4947 28.0218H26.7368ZM31.6017 31.8353C31.0085 31.8353 30.5261 31.3707 30.5261 30.8V23.1294C30.5261 22.5065 31.0401 22 31.6718 22C32.3036 22 32.8176 22.5065 32.8176 23.1294V29.7647H35.2026C35.7958 29.7647 36.2782 30.2293 36.2782 30.8C36.2782 31.3707 35.7958 31.8353 35.2026 31.8353H31.6017ZM37.8372 31.9853C37.2182 31.9853 36.7148 31.4788 36.7148 30.8559V23.1294C36.7148 22.5065 37.2182 22 37.8372 22C38.4562 22 38.9596 22.5065 38.9596 23.1294V25.5569L42.091 22.4058C42.252 22.2438 42.4733 22.1545 42.7135 22.1545C42.9937 22.1545 43.2751 22.2761 43.4859 22.4881C43.6825 22.6857 43.7998 22.94 43.8159 23.2041C43.8321 23.4705 43.744 23.7146 43.5682 23.8918L41.0105 26.4651L43.7732 30.1481C43.8624 30.2663 43.9274 30.4011 43.9644 30.5447C44.0014 30.6884 44.0097 30.838 43.9887 30.9848C43.9687 31.1318 43.9199 31.2733 43.8452 31.4012C43.7704 31.529 43.6712 31.6407 43.5532 31.7297C43.3591 31.8781 43.1219 31.9582 42.8781 31.9576C42.7042 31.9585 42.5326 31.9183 42.3769 31.8403C42.2212 31.7624 42.0858 31.6488 41.9815 31.5087L39.3494 27.9992L38.9599 28.3912V30.8553C38.9596 31.1549 38.8412 31.4421 38.6307 31.6539C38.4203 31.8657 38.1349 31.9849 37.8372 31.9853Z" fill="currentColor"/>
</svg>
