<svg width="74" height="17" viewBox="0 0 74 17" fill="none" xmlns="http://www.w3.org/2000/svg">
<path d="M7.17578 16.333C5.94401 16.333 4.86979 16.1504 3.95312 15.7852C3.04362 15.4199 2.32747 14.8971 1.80469 14.2168C1.28906 13.5365 0.999023 12.7308 0.93457 11.7998L0.923828 11.6279H4.01758L4.03906 11.7354C4.09635 12.1292 4.26465 12.473 4.54395 12.7666C4.8304 13.0602 5.2028 13.2894 5.66113 13.4541C6.12663 13.6117 6.65658 13.6904 7.25098 13.6904C7.84538 13.6904 8.361 13.6081 8.79785 13.4434C9.2347 13.2715 9.57129 13.0352 9.80762 12.7344C10.0511 12.4336 10.1729 12.0863 10.1729 11.6924V11.6816C10.1729 11.166 9.96517 10.7578 9.5498 10.457C9.1416 10.1562 8.45768 9.9056 7.49805 9.70508L5.85449 9.38281C4.29329 9.06055 3.13314 8.5306 2.37402 7.79297C1.62207 7.04818 1.24609 6.09212 1.24609 4.9248V4.91406C1.25326 3.96159 1.50749 3.13086 2.00879 2.42188C2.51725 1.71289 3.21549 1.16146 4.10352 0.767578C4.9987 0.366536 6.01562 0.166016 7.1543 0.166016C8.35742 0.166016 9.39225 0.359375 10.2588 0.746094C11.1253 1.12565 11.8021 1.6556 12.2891 2.33594C12.776 3.00911 13.0482 3.78971 13.1055 4.67773L13.1162 4.84961H10.0654L10.0439 4.7207C9.98665 4.32682 9.83268 3.99023 9.58203 3.71094C9.33138 3.42448 8.99837 3.20247 8.58301 3.04492C8.1748 2.88737 7.69857 2.80859 7.1543 2.80859C6.61719 2.80859 6.14811 2.88737 5.74707 3.04492C5.34603 3.20247 5.03451 3.42448 4.8125 3.71094C4.59766 3.99023 4.49023 4.31966 4.49023 4.69922V4.70996C4.49023 5.2041 4.69434 5.60514 5.10254 5.91309C5.5179 6.22103 6.17676 6.46452 7.0791 6.64355L8.71191 6.97656C9.80762 7.19857 10.6992 7.49935 11.3867 7.87891C12.0814 8.25846 12.5934 8.7347 12.9229 9.30762C13.2523 9.88053 13.417 10.5716 13.417 11.3809V11.3916C13.417 12.4014 13.1663 13.2751 12.665 14.0127C12.1709 14.7503 11.4548 15.3232 10.5166 15.7314C9.58561 16.1325 8.47201 16.333 7.17578 16.333ZM15.9199 16V0.499023H18.6914L26.9092 12.1113L24.4062 10.4893H25.8887V0.499023H29.0576V16H26.2969L18.0684 4.33398L20.5713 5.9668H19.0889V16H15.9199ZM38.6934 16.333C37.3757 16.333 36.2298 16.0931 35.2559 15.6133C34.2819 15.1335 33.5299 14.4639 33 13.6045C32.4701 12.738 32.2051 11.7318 32.2051 10.5859V0.499023H35.4492V10.2959C35.4492 10.9619 35.5745 11.542 35.8252 12.0361C36.083 12.5231 36.4518 12.9027 36.9316 13.1748C37.4186 13.4469 38.0094 13.583 38.7041 13.583C39.3988 13.583 39.986 13.4469 40.4658 13.1748C40.9528 12.9027 41.3216 12.5231 41.5723 12.0361C41.8229 11.542 41.9482 10.9619 41.9482 10.2959V0.499023H45.1924V10.5859C45.1924 11.7318 44.9274 12.738 44.3975 13.6045C43.8675 14.4639 43.1156 15.1335 42.1416 15.6133C41.1748 16.0931 40.0254 16.333 38.6934 16.333ZM52.0459 16V3.17383H47.4912V0.499023H59.8555V3.17383H55.29V16H52.0459ZM65.9033 16V3.17383H61.3486V0.499023H73.7129V3.17383H69.1475V16H65.9033Z" fill="black"/>
</svg>
