<svg width="17" height="17" viewBox="0 0 17 17" fill="none" xmlns="http://www.w3.org/2000/svg">
<g clip-path="url(#clip0_8365_8404)">
<path d="M11 14.9375V13.5625C11 12.8332 10.7103 12.1337 10.1945 11.618C9.67882 11.1022 8.97935 10.8125 8.25 10.8125H3.4375C2.70815 10.8125 2.00868 11.1022 1.49296 11.618C0.977231 12.1337 0.6875 12.8332 0.6875 13.5625V14.9375" stroke="currentColor" stroke-width="1.25" stroke-linecap="round" stroke-linejoin="round"/>
<path d="M5.84375 8.0625C7.36253 8.0625 8.59375 6.83128 8.59375 5.3125C8.59375 3.79372 7.36253 2.5625 5.84375 2.5625C4.32497 2.5625 3.09375 3.79372 3.09375 5.3125C3.09375 6.83128 4.32497 8.0625 5.84375 8.0625Z" stroke="currentColor" stroke-width="1.25" stroke-linecap="round" stroke-linejoin="round"/>
<path d="M13.75 6V10.125" stroke="currentColor" stroke-width="1.25" stroke-linecap="round" stroke-linejoin="round"/>
<path d="M15.8125 8.0625H11.6875" stroke="currentColor" stroke-width="1.25" stroke-linecap="round" stroke-linejoin="round"/>
</g>
<defs>
<clipPath id="clip0_8365_8404">
<rect width="16.5" height="16.5" fill="white" transform="translate(0 0.5)"/>
</clipPath>
</defs>
</svg>
