<svg width="60" height="60" viewBox="0 0 60 60" fill="none" xmlns="http://www.w3.org/2000/svg">
<path d="M12.4004 38.6C12.4004 33.6294 16.4298 29.6 21.4004 29.6H36.6004C41.571 29.6 45.6004 33.6294 45.6004 38.6V45.2H12.4004V38.6Z" stroke="#0E0E0E" stroke-width="2"/>
<circle cx="29" cy="17.4" r="7" stroke="#0E0E0E" stroke-width="2"/>
<path d="M51.4085 24.2294L50.8388 24.6704L51.4085 24.2294C51.0798 23.8048 50.6142 23.5833 50.0821 23.5833H48.5448L48.9515 21.9567C49.09 21.4457 48.9777 20.95 48.6511 20.5419C48.3273 20.1371 47.8761 19.9166 47.3551 19.9166C46.9878 19.9166 46.6349 20.0256 46.3365 20.2643C46.0483 20.4949 45.8614 20.802 45.7783 21.1543L45.1664 23.5833H43.0448L43.4515 21.9567C43.59 21.4456 43.4777 20.95 43.1511 20.5419C42.8273 20.1371 42.3761 19.9166 41.8551 19.9166C41.4878 19.9166 41.1349 20.0256 40.8365 20.2643C40.5483 20.4949 40.3614 20.802 40.2783 21.1543L39.6664 23.5833H37.2946C36.9272 23.5833 36.5808 23.6917 36.2806 23.9101C35.9595 24.1436 35.756 24.4696 35.6713 24.8465C35.5422 25.3559 35.6453 25.8534 35.9683 26.2705C36.297 26.6951 36.7626 26.9166 37.2946 26.9166H38.832L38.2903 29.0833H35.9196C35.5522 29.0833 35.2058 29.1917 34.9056 29.4101C34.5845 29.6436 34.381 29.9696 34.2963 30.3465C34.1672 30.8559 34.2703 31.3534 34.5933 31.7705C34.922 32.1951 35.3876 32.4166 35.9196 32.4166H37.457L37.0503 34.0432C36.9118 34.5543 37.0241 35.0499 37.3507 35.4581C37.6745 35.8629 38.1257 36.0833 38.6467 36.0833C39.014 36.0833 39.3668 35.9743 39.6652 35.7356C39.9535 35.505 40.1404 35.1979 40.2235 34.8457L40.8354 32.4166H42.957L42.5503 34.0432C42.4118 34.5543 42.5241 35.0499 42.8507 35.4581C43.1745 35.8629 43.6257 36.0833 44.1467 36.0833C44.514 36.0833 44.8668 35.9743 45.1652 35.7356C45.4535 35.505 45.6404 35.1979 45.7235 34.8456L46.3354 32.4166H48.7071C49.0746 32.4166 49.421 32.3082 49.7212 32.0898C50.0422 31.8564 50.2458 31.5303 50.3305 31.1534C50.4595 30.644 50.3564 30.1465 50.0335 29.7294C49.7048 29.3048 49.2392 29.0833 48.7071 29.0833H47.1698L47.7115 26.9166H50.0821C50.4496 26.9166 50.796 26.8082 51.0962 26.5898C51.4172 26.3564 51.6208 26.0303 51.7055 25.6534C51.8345 25.144 51.7314 24.6465 51.4085 24.2294ZM44.332 26.9166L43.7903 29.0833H41.6698L42.2115 26.9166H44.332Z" fill="#0E0E0E" stroke="white" stroke-width="1.5"/>
</svg>
