<svg width="60" height="60" viewBox="0 0 60 60" fill="none" xmlns="http://www.w3.org/2000/svg">
<g clip-path="url(#clip0_10094_60292)">
<path d="M29 24.4C32.866 24.4 36 21.266 36 17.4C36 13.534 32.866 10.4 29 10.4C25.134 10.4 22 13.534 22 17.4C22 21.266 25.134 24.4 29 24.4Z" stroke="currentColor" stroke-width="2"/>
<path d="M50.7998 24.7C50.5998 24.5 50.3998 24.3 50.0998 24.3H47.5998L48.1998 21.7C48.2998 21.4 48.1998 21.2 47.9998 20.9C47.6998 20.5 47.0998 20.5 46.6998 20.7C46.4998 20.8 46.3998 21 46.3998 21.2L45.5998 24.2H41.8998L42.4998 21.6C42.5998 21.3 42.4998 21.1 42.2998 20.8C41.9998 20.4 41.3998 20.4 40.9998 20.6C40.7998 20.7 40.6998 20.9 40.6998 21.1L39.8998 24.1H36.8998C36.6998 24.1 36.4998 24.2 36.2998 24.3C36.0998 24.4 35.9998 24.6 35.9998 24.8C35.8998 25.1 35.9998 25.4 36.1998 25.6C36.3998 25.8 36.5998 26 36.8998 26H39.3998L38.4998 29.7H35.4998C35.2998 29.7 35.0998 29.8 34.8998 29.9C34.6998 30 34.5998 30.2 34.5998 30.4C34.4998 30.7 34.5998 31 34.7998 31.2C34.9998 31.4 35.1998 31.6 35.4998 31.6H37.9998L37.3998 34.2C37.2998 34.5 37.3998 34.7 37.5998 35C37.8998 35.4 38.4998 35.4 38.8998 35.2C39.0998 35.1 39.1998 34.9 39.1998 34.7L39.9998 31.7H43.6998L43.0998 34.3C42.9998 34.6 43.0998 34.8 43.2998 35.1C43.5998 35.5 44.1998 35.5 44.5998 35.3C44.7998 35.2 44.8998 35 44.8998 34.8L45.6998 31.8H48.6998C48.8998 31.8 49.0998 31.7 49.2998 31.6C49.4998 31.5 49.5998 31.3 49.5998 31.1C49.6998 30.8 49.5998 30.5 49.3998 30.3C49.1998 30.1 48.9998 29.9 48.6998 29.9H46.1998L47.0998 26.2H50.0998C50.2998 26.2 50.4998 26.1 50.6998 26C50.8998 25.9 50.9998 25.7 50.9998 25.5C51.0998 25.2 50.9998 24.9 50.7998 24.7ZM44.3998 29.8H40.6998L41.5998 26.1H45.2998L44.3998 29.8Z" fill="currentColor"/>
<path d="M45.6004 36.3C45.2004 36.6 44.8004 36.7 44.4004 36.8C44.5004 37.4 44.6004 38 44.6004 38.6V44.2H13.4004V38.6C13.4004 34.2 17.0004 30.6 21.4004 30.6H33.5004C33.5004 30.5 33.5004 30.3 33.6004 30.2C33.7004 29.7 34.0004 29.2 34.5004 28.8C34.6004 28.7 34.7004 28.7 34.8004 28.6H21.4004C15.9004 28.6 11.4004 33.1 11.4004 38.6V46.2H46.6004V38.6C46.6004 37.6 46.4004 36.6 46.2004 35.7C46.0004 35.9 45.9004 36.1 45.6004 36.3Z" fill="currentColor"/>
</g>
<defs>
<clipPath id="clip0_10094_60292">
<rect width="60" height="60" fill="white"/>
</clipPath>
</defs>
</svg>
