<svg width="30" height="30" viewBox="0 0 30 30" fill="none" xmlns="http://www.w3.org/2000/svg">
<path fill-rule="evenodd" clip-rule="evenodd" d="M15 23C19.4183 23 23 19.4182 23 15C23 10.5818 19.4183 7 15 7C10.5817 7 7 10.5818 7 15C7 19.4182 10.5817 23 15 23ZM18.5442 11.4559C18.8382 11.7498 18.8382 12.2266 18.5442 12.5207L16.0648 15L18.5442 17.4793C18.8382 17.7734 18.8382 18.2502 18.5442 18.5441C18.2501 18.8382 17.7734 18.8382 17.4793 18.5441L15 16.0648L12.5207 18.5441C12.2266 18.8382 11.7499 18.8382 11.4558 18.5441C11.1618 18.2502 11.1618 17.7734 11.4558 17.4793L13.9352 15L11.4558 12.5207C11.1618 12.2266 11.1618 11.7498 11.4558 11.4559C11.7499 11.1618 12.2266 11.1618 12.5207 11.4559L15 13.9352L17.4793 11.4559C17.7734 11.1618 18.2501 11.1618 18.5442 11.4559Z" fill="#B3B3B3"/>
</svg>
