<svg width="26" height="26" viewBox="0 0 26 26" fill="none" xmlns="http://www.w3.org/2000/svg">
<mask id="path-1-inside-1_11281_10964" fill="white">
<path fill-rule="evenodd" clip-rule="evenodd" d="M17.6551 11.061C17.6551 14.4637 14.8967 17.2221 11.4941 17.2221C8.09141 17.2221 5.33301 14.4637 5.33301 11.061C5.33301 7.65837 8.09141 4.89996 11.4941 4.89996C14.8967 4.89996 17.6551 7.65837 17.6551 11.061ZM16.2314 16.4313C14.9689 17.5458 13.3105 18.2221 11.4941 18.2221C7.53913 18.2221 4.33301 15.016 4.33301 11.061C4.33301 7.10608 7.53913 3.89996 11.4941 3.89996C15.449 3.89996 18.6551 7.10608 18.6551 11.061C18.6551 12.8774 17.9789 14.5359 16.8644 15.7984L17.3098 16.2438L20.9592 19.8932L21.6663 20.6003L21.0334 21.2333L20.3263 20.5262L16.6768 16.8768L16.2314 16.4313Z"/>
</mask>
<path d="M16.2314 16.4313L16.9385 15.7242L16.274 15.0597L15.5696 15.6817L16.2314 16.4313ZM16.8644 15.7984L16.1147 15.1365L15.4928 15.841L16.1572 16.5055L16.8644 15.7984ZM20.9592 19.8932L21.6663 19.1861L20.9592 19.8932ZM21.6663 20.6003L22.3734 21.3074L23.0805 20.6003L22.3734 19.8932L21.6663 20.6003ZM21.0334 21.2333L20.3263 21.9404L21.0334 22.6475L21.7405 21.9404L21.0334 21.2333ZM11.4941 18.2221C15.449 18.2221 18.6551 15.016 18.6551 11.061H16.6551C16.6551 13.9114 14.3445 16.2221 11.4941 16.2221V18.2221ZM4.33301 11.061C4.33301 15.016 7.53913 18.2221 11.4941 18.2221V16.2221C8.6437 16.2221 6.33301 13.9114 6.33301 11.061H4.33301ZM11.4941 3.89996C7.53913 3.89996 4.33301 7.10608 4.33301 11.061H6.33301C6.33301 8.21065 8.6437 5.89996 11.4941 5.89996V3.89996ZM18.6551 11.061C18.6551 7.10608 15.449 3.89996 11.4941 3.89996V5.89996C14.3445 5.89996 16.6551 8.21065 16.6551 11.061H18.6551ZM11.4941 19.2221C13.5635 19.2221 15.4551 18.4506 16.8932 17.181L15.5696 15.6817C14.4828 16.6411 13.0575 17.2221 11.4941 17.2221V19.2221ZM3.33301 11.061C3.33301 15.5683 6.98684 19.2221 11.4941 19.2221V17.2221C8.09141 17.2221 5.33301 14.4637 5.33301 11.061H3.33301ZM11.4941 2.89996C6.98684 2.89996 3.33301 6.5538 3.33301 11.061H5.33301C5.33301 7.65837 8.09141 4.89996 11.4941 4.89996V2.89996ZM19.6551 11.061C19.6551 6.5538 16.0013 2.89996 11.4941 2.89996V4.89996C14.8967 4.89996 17.6551 7.65837 17.6551 11.061H19.6551ZM17.614 16.4602C18.8836 15.022 19.6551 13.1304 19.6551 11.061H17.6551C17.6551 12.6245 17.0741 14.0498 16.1147 15.1365L17.614 16.4602ZM16.1572 16.5055L16.6027 16.9509L18.0169 15.5367L17.5715 15.0913L16.1572 16.5055ZM16.6027 16.9509L20.2521 20.6003L21.6663 19.1861L18.0169 15.5367L16.6027 16.9509ZM20.2521 20.6003L20.9592 21.3074L22.3734 19.8932L21.6663 19.1861L20.2521 20.6003ZM20.9592 19.8932L20.3263 20.5262L21.7405 21.9404L22.3734 21.3074L20.9592 19.8932ZM21.7405 20.5262L21.0334 19.8191L19.6192 21.2333L20.3263 21.9404L21.7405 20.5262ZM21.0334 19.8191L17.3839 16.1696L15.9697 17.5839L19.6192 21.2333L21.0334 19.8191ZM17.3839 16.1696L16.9385 15.7242L15.5243 17.1384L15.9697 17.5839L17.3839 16.1696Z" fill="black" mask="url(#path-1-inside-1_11281_10964)"/>
</svg>
